<?xml version="1.0" encoding="UTF-8" standalone="no"?>
<svg
   xmlns:dc="http://purl.org/dc/elements/1.1/"
   xmlns:cc="http://creativecommons.org/ns#"
   xmlns:rdf="http://www.w3.org/1999/02/22-rdf-syntax-ns#"
   xmlns:svg="http://www.w3.org/2000/svg"
   xmlns="http://www.w3.org/2000/svg"
   xmlns:sodipodi="http://sodipodi.sourceforge.net/DTD/sodipodi-0.dtd"
   xmlns:inkscape="http://www.inkscape.org/namespaces/inkscape"
   inkscape:version="1.0 (4035a4fb49, 2020-05-01)"
   sodipodi:docname="coeur.svg"
   id="svg849"
   preserveAspectRatio="xMidYMid meet"
   viewBox="0 0 24.000001 24.000001"
   height="32"
   width="32"
   version="1.0">
  <metadata
     id="metadata855">
    <rdf:RDF>
      <cc:Work
         rdf:about="">
        <dc:format>image/svg+xml</dc:format>
        <dc:type
           rdf:resource="http://purl.org/dc/dcmitype/StillImage" />
        <dc:title></dc:title>
      </cc:Work>
    </rdf:RDF>
  </metadata>
  <defs
     id="defs853" />
  <sodipodi:namedview
     inkscape:current-layer="svg849"
     inkscape:window-maximized="0"
     inkscape:window-y="0"
     inkscape:window-x="234"
     inkscape:cy="39.792133"
     inkscape:cx="56.413412"
     inkscape:zoom="7.9774919"
     units="px"
     showborder="true"
     showgrid="false"
     id="namedview851"
     inkscape:window-height="1040"
     inkscape:window-width="1577"
     inkscape:pageshadow="2"
     inkscape:pageopacity="0"
     guidetolerance="10"
     gridtolerance="10"
     objecttolerance="10"
     borderopacity="1"
     bordercolor="#666666"
     pagecolor="#ffffff" />
  <g
     style="fill:none;stroke:#000000;stroke-width:225.774;stroke-miterlimit:4;stroke-dasharray:none;stroke-opacity:1"
     id="g847"
     stroke="none"
     fill="#000000"
     transform="matrix(0.00214618,0,0,-0.00241967,-1.2872109,26.385256)">
    <path
       style="fill:none;stroke:#000000;stroke-width:225.774;stroke-miterlimit:4;stroke-dasharray:none;stroke-opacity:1"
       id="path845"
       d="m 3585,10484 c -16,-2 -70,-9 -120,-15 -734,-88 -1425,-478 -1850,-1044 -272,-362 -429,-751 -502,-1240 -25,-173 -25,-626 0,-815 122,-904 565,-1698 1432,-2565 418,-419 756,-707 1690,-1440 848,-667 1048,-837 1381,-1169 121,-122 260,-270 308,-331 106,-132 250,-347 290,-433 16,-34 32,-62 35,-62 3,0 24,35 46,78 113,221 298,456 590,748 329,330 538,507 1360,1152 264,207 565,446 670,531 904,735 1456,1300 1850,1896 349,527 541,1017 621,1585 26,180 26,656 1,824 -94,625 -323,1094 -736,1506 -429,428 -966,688 -1616,782 -143,21 -601,17 -750,-6 -713,-109 -1289,-467 -1672,-1039 -106,-158 -231,-417 -297,-617 -30,-91 -60,-165 -66,-165 -6,0 -35,74 -65,165 -215,642 -639,1140 -1209,1420 -179,87 -301,132 -490,180 -232,59 -346,72 -626,75 -135,2 -258,1 -275,-1 z" />
  </g>
</svg>
